Coordinates
version=1
nRows=12
nColumns=24
inDegrees=yes

Units are S.I. units (second, meters, Newtons, ...)
Angles are in degrees.

endheader
time	pelvis_tilt	pelvis_list	pelvis_rotation	pelvis_tx	pelvis_ty	pelvis_tz	hip_flexion_r	hip_adduction_r	hip_rotation_r	knee_angle_r	ankle_angle_r	subtalar_angle_r	mtp_angle_r	hip_flexion_l	hip_adduction_l	hip_rotation_l	knee_angle_l	ankle_angle_l	subtalar_angle_l	mtp_angle_l	lumbar_extension	lumbar_bending	lumbar_rotation
      5.83000000	     -3.80848683	      4.60739202	     15.41602098	     -1.47694965	      0.64078322	      0.15659967	     28.60882747	     -8.87263747	    -15.45133132	     -7.57071656	     -4.02503216	    -15.57225119	      0.00000000	    -19.14540898	      2.07429765	     17.34053513	    -13.38667766	     17.32921604	     -0.96677982	      0.00000000	     -4.99086771	     -8.35872901	     -6.34772539
      5.84000000	     -4.38061239	      3.77305855	     14.98969596	     -1.46530655	      0.63944623	      0.15752719	     29.51507646	     -7.90222055	    -14.41323297	     -9.27660820	     -5.74021926	    -18.28694773	      0.00000000	    -18.98951680	      1.24429389	     16.83886386	    -13.83877021	     16.11721781	     -0.75037530	      0.00000000	     -3.92962461	     -7.43063005	     -5.78028213
      5.85000000	     -4.84649720	      2.77938219	     14.18895946	     -1.45390396	      0.63849021	      0.15878214	     30.63240011	     -6.61422499	    -13.34021391	    -11.46833323	     -6.42518970	    -20.06696337	      0.00000000	    -18.80272525	      0.38332169	     15.97898624	    -14.45731177	     14.74403155	     -0.51323604	      0.00000000	     -3.03006308	     -6.24016270	     -5.03197064
      5.86000000	     -5.12135760	      1.63342136	     13.09900220	     -1.44267835	      0.63797363	      0.16027529	     31.73166068	     -5.02521209	    -12.44529367	    -14.00859028	     -5.88561498	    -20.72149243	      0.00000000	    -18.72511169	     -0.53886965	     14.98746042	    -15.19117713	     13.05642248	     -0.60694398	      0.00000000	     -2.41571432	     -4.74946547	     -4.28382871
      5.87000000	     -5.47444753	      0.55434235	     11.81040700	     -1.43169443	      0.63762042	      0.16199249	     32.88231776	     -3.37120767	    -11.44983261	    -16.57875077	     -4.88365619	    -21.23559541	      0.00000000	    -18.41639462	     -1.27174437	     13.82428600	    -16.24944835	     11.20789464	     -0.66054315	      0.00000000	     -1.87089646	     -3.31383157	     -3.53296778
      5.88000000	     -5.78547335	     -0.46017343	     10.55278407	     -1.42093158	      0.63757845	      0.16374892	     33.75310849	     -1.74665610	    -10.71251553	    -18.85524929	     -3.18778787	    -20.98978690	      0.00000000	    -17.95236645	     -1.94104644	     12.61431643	    -17.64554476	      9.13555086	     -0.59417774	      0.00000000	     -1.55609398	     -1.89336461	     -3.21671254
      5.89000000	     -5.92659059	     -1.44690138	      9.45394522	     -1.41037515	      0.63797754	      0.16547346	     34.01923479	     -0.11221002	    -10.12166803	    -20.40322013	     -2.02824072	    -21.22893744	      0.00000000	    -17.44544045	     -2.63985987	     11.55784803	    -19.34623593	      6.58869285	     -0.76006019	      0.00000000	     -1.61730834	     -0.45311977	     -3.22075566
      5.90000000	     -5.86232531	     -2.34194938	      8.60824095	     -1.40008719	      0.63886729	      0.16707238	     33.69239541	      1.36625055	     -9.87187634	    -21.34610754	     -0.46411208	    -20.89669838	      0.00000000	    -16.89566610	     -3.33587344	     10.70035168	    -21.36126676	      3.71576667	     -0.99681974	      0.00000000	     -2.09875850	      0.91571930	     -3.70270266
      5.91000000	     -5.99355388	     -3.05188958	      7.98922989	     -1.39018919	      0.63989879	      0.16859397	     33.20494463	      2.59500476	     -9.57940048	    -21.62586710	      0.44650163	    -21.08178855	      0.00000000	    -15.76506768	     -3.88905986	      9.92859464	    -23.85271026	      0.53195361	     -1.04224930	      0.00000000	     -2.48469881	      2.00425603	     -4.42546185
      5.92000000	     -5.90607562	     -3.62494309	      7.59386963	     -1.38064219	      0.64140605	      0.16994724	     32.24062508	      3.62151713	     -9.48476588	    -21.47176029	      1.48908629	    -20.96126434	      0.00000000	    -14.58845517	     -4.35258577	      9.46043795	    -26.60546480	     -3.05818847	     -1.62726983	      0.00000000	     -3.23096443	      2.94793612	     -5.37782069
      5.93000000	     -5.99409015	     -4.06686488	      7.30808262	     -1.37148842	      0.64300612	      0.17125095	     31.31221203	      4.45438750	     -9.39184583	    -21.02394213	      2.20472706	    -20.87617769	      0.00000000	    -12.86635400	     -4.70495199	      9.00247177	    -29.76004566	     -6.69165805	     -1.93019890	      0.00000000	     -3.78013595	      3.66415123	     -6.29732044
      5.94000000	     -6.09335707	     -4.32872220	      7.10663436	     -1.36272799	      0.64483923	      0.17241642	     30.33630121	      5.04366341	     -9.35513698	    -20.47673622	      3.01167589	    -20.53350678	      0.00000000	    -10.88485020	     -4.83230565	      8.82190350	    -33.11939148	    -10.52646649	     -2.50441204	      0.00000000	     -4.32003572	      4.13088235	     -7.12556887
